# xmcd
#
# Track frame offsets:
#	182
#	14312
#	29802
#	49187
#	61705
#	74462
#	89920
#	99677
#	112197
#	130587
#
# Disc length: 1890 seconds
#
# Revision: 1
# Processed by: cddbd v1.5.1PL0 Copyright (c) Steve Scherf et al.
# Submitted via: EasyCDDAExtractor 5.0.6
#
DISCID=9107600a
DTITLE=Céline+Guylaine - AmourToujours
DYEAR=1980
DGENRE=Country
TTITLE0=Je Tremble
TTITLE1=Envole-toi
TTITLE2=Allons swinger
TTITLE3=Le Vieux Monsieur
TTITLE4=Oh! L'Amour
TTITLE5=Porte un message à mon coeur
TTITLE6=L'amour d'un cowboy
TTITLE7=Il y a si longtemps
TTITLE8=Où son  passés les couples heureux
TTITLE9=Tu es le seul
EXTD=
EXTT0=
EXTT1=
EXTT2=
EXTT3=
EXTT4=
EXTT5=
EXTT6=
EXTT7=
EXTT8=
EXTT9=
PLAYORDER=
